{"asset":{"generator":"glTF-Transform v4.0.2","version":"2.0"},"accessors":[{"type":"SCALAR","componentType":5125,"count":4041240,"normalized":false,"byteOffset":0,"bufferView":0},{"type":"VEC3","componentType":5120,"count":868996,"normalized":true,"byteOffset":0,"bufferView":1},{"type":"VEC2","componentType":5123,"count":868996,"normalized":true,"byteOffset":0,"bufferView":2},{"type":"VEC3","componentType":5122,"count":868996,"max":[22210,15269,32767],"min":[-22210,-15269,-32767],"normalized":true,"byteOffset":0,"bufferView":3}],"bufferViews":[{"buffer":1,"byteOffset":0,"byteLength":16164960,"target":34963,"extensions":{"EXT_meshopt_compression":{"buffer":0,"byteOffset":0,"byteLength":1553182,"mode":"TRIANGLES","byteStride":4,"count":4041240}}},{"buffer":1,"byteOffset":16164960,"byteLength":3475984,"target":34962,"byteStride":4,"extensions":{"EXT_meshopt_compression":{"buffer":0,"byteOffset":1553184,"byteLength":1423463,"mode":"ATTRIBUTES","filter":"OCTAHEDRAL","byteStride":4,"count":868996}}},{"buffer":1,"byteOffset":19640944,"byteLength":3475984,"target":34962,"byteStride":4,"extensions":{"EXT_meshopt_compression":{"buffer":0,"byteOffset":2976648,"byteLength":2113226,"mode":"ATTRIBUTES","byteStride":4,"count":868996}}},{"buffer":1,"byteOffset":23116928,"byteLength":6951968,"target":34962,"byteStride":8,"extensions":{"EXT_meshopt_compression":{"buffer":0,"byteOffset":5089876,"byteLength":3374598,"mode":"ATTRIBUTES","byteStride":8,"count":868996}}}],"samplers":[{"magFilter":9729,"minFilter":9986,"wrapS":10497,"wrapT":10497}],"textures":[{"source":0,"sampler":0}],"images":[{"name":"Drusa.jpg","mimeType":"image/jpeg","uri":"baseColor.jpg"}],"buffers":[{"uri":"Drusa.bin","byteLength":8464476},{"byteLength":30068896,"extensions":{"EXT_meshopt_compression":{"fallback":true}}}],"materials":[{"name":"Drusa","pbrMetallicRoughness":{"baseColorTexture":{"index":0}}}],"meshes":[{"name":"Group_Global","primitives":[{"attributes":{"NORMAL":1,"TEXCOORD_0":2,"POSITION":3},"mode":4,"material":0,"indices":0}]}],"nodes":[{"name":"Group_Global","translation":[-0.4502239227294922,-1.4235651552632673,5.730461440996742],"rotation":[0.707106828689577,0,0,0.7071067336835151],"scale":[12.637667179107666,12.63766674653877,12.63766674653877],"mesh":0}],"scenes":[{"name":"Scene","nodes":[0]}],"scene":0,"extensionsUsed":["EXT_meshopt_compression","KHR_mesh_quantization"],"extensionsRequired":["EXT_meshopt_compression","KHR_mesh_quantization"]}